<svg viewBox="0 0 18 21" fill="none" xmlns="http://www.w3.org/2000/svg">
<path d="M6.94002 8.89054C6.3695 8.89054 5.92002 9.39054 5.92002 10.0011C5.92002 10.6095 6.38002 11.1116 6.94002 11.1116C7.5095 11.1116 7.95897 10.6095 7.95897 10.0011C7.97055 9.38948 7.5095 8.89054 6.94002 8.89054ZM10.5906 8.89054C10.02 8.89054 9.57055 9.39054 9.57055 10.0011C9.57055 10.6095 10.0306 11.1116 10.5906 11.1116C11.16 11.1116 11.6095 10.6095 11.6095 10.0011C11.6084 9.38948 11.16 8.89054 10.5906 8.89054Z" fill="#181818"/>
<path d="M15.4505 0.5H2.04948C1.77965 0.50069 1.51259 0.554521 1.26357 0.65842C1.01454 0.762318 0.788413 0.914249 0.598102 1.10554C0.40779 1.29683 0.25702 1.52373 0.154398 1.77328C0.051777 2.02284 -0.000685295 2.29017 6.75857e-06 2.56V16.08C6.75857e-06 17.22 0.920007 18.14 2.04948 18.14H13.3895L12.8579 16.2884L14.139 17.4789L15.3484 18.5989L17.5 20.5V2.56C17.5007 2.29017 17.4482 2.02284 17.3456 1.77328C17.243 1.52373 17.0922 1.29683 16.9019 1.10554C16.7116 0.914249 16.4855 0.762318 16.2364 0.65842C15.9874 0.554521 15.7204 0.50069 15.4505 0.5ZM11.5895 13.56C11.5895 13.56 11.2295 13.1305 10.9305 12.7484C12.24 12.3779 12.74 11.5589 12.74 11.5589C12.3295 11.8284 11.94 12.02 11.5895 12.1505C10.3134 12.6846 8.90804 12.8303 7.54948 12.5695C7.04748 12.4709 6.5556 12.3264 6.08001 12.1379C5.82918 12.0426 5.58541 11.9297 5.35053 11.8C5.32001 11.7779 5.29053 11.7695 5.26106 11.7495C5.24529 11.742 5.2313 11.7312 5.22001 11.7179C5.04001 11.6189 4.94001 11.5495 4.94001 11.5495C4.94001 11.5495 5.42001 12.3495 6.69053 12.7295C6.39053 13.1084 6.02001 13.56 6.02001 13.56C3.81053 13.4895 2.97159 12.04 2.97159 12.04C2.97159 8.82 4.41159 6.21053 4.41159 6.21053C5.85158 5.12947 7.22106 5.16 7.22106 5.16L7.32106 5.28C5.52106 5.80105 4.69053 6.59053 4.69053 6.59053C4.69053 6.59053 4.91159 6.47053 5.28106 6.30105C6.35053 5.83158 7.20001 5.70105 7.55053 5.67053C7.61053 5.66105 7.66106 5.65053 7.72106 5.65053C9.45496 5.41686 11.2181 5.74638 12.7505 6.59053C12.7505 6.59053 11.96 5.84105 10.26 5.32105L10.4 5.16105C10.4 5.16105 11.7705 5.13053 13.2095 6.21158C13.2095 6.21158 14.6495 8.82105 14.6495 12.0411C14.6495 12.04 13.8 13.4895 11.5895 13.56Z" fill="#181818"/>
</svg>
