<svg viewBox="0 0 21 21" fill="none" xmlns="http://www.w3.org/2000/svg">
<g clip-path="url(#clip0_2_19)">
<path fill-rule="evenodd" clip-rule="evenodd" d="M10.5 0.5C4.97502 0.5 0.500015 4.975 0.500015 10.5C0.500015 14.925 3.36252 18.6625 7.33751 19.9875C7.83751 20.075 8.02501 19.775 8.02501 19.5125C8.02501 19.275 8.01252 18.4875 8.01252 17.65C5.50002 18.1125 4.85002 17.0375 4.65002 16.475C4.53752 16.1875 4.05002 15.3 3.62502 15.0625C3.27502 14.875 2.77502 14.4125 3.61252 14.4C4.40002 14.3875 4.96251 15.125 5.15001 15.425C6.05001 16.9375 7.48751 16.5125 8.06251 16.25C8.15001 15.6 8.41252 15.1625 8.70002 14.9125C6.47502 14.6625 4.15002 13.8 4.15002 9.975C4.15002 8.8875 4.53752 7.9875 5.17502 7.2875C5.07502 7.0375 4.72502 6.0125 5.27502 4.6375C5.27502 4.6375 6.11251 4.375 8.02501 5.6625C8.82502 5.4375 9.67501 5.325 10.525 5.325C11.375 5.325 12.225 5.4375 13.025 5.6625C14.9375 4.3625 15.775 4.6375 15.775 4.6375C16.325 6.0125 15.975 7.0375 15.875 7.2875C16.5125 7.9875 16.9 8.875 16.9 9.975C16.9 13.8125 14.5625 14.6625 12.3375 14.9125C12.7 15.225 13.0125 15.825 13.0125 16.7625C13.0125 18.1 13 19.175 13 19.5125C13 19.775 13.1875 20.0875 13.6875 19.9875C15.6727 19.3173 17.3977 18.0414 18.6197 16.3395C19.8418 14.6375 20.4994 12.5952 20.5 10.5C20.5 4.975 16.025 0.5 10.5 0.5Z" fill="white"/>
</g>
<defs>
<clipPath id="clip0_2_19">
<rect width="20" height="20" fill="white" transform="translate(0.500015 0.5)"/>
</clipPath>
</defs>
</svg>
